<?xml version="1.0" standalone="no"?>
<!DOCTYPE svg PUBLIC "-//W3C//DTD SVG 20010904//EN"
 "http://www.w3.org/TR/2001/REC-SVG-20010904/DTD/svg10.dtd">
<svg version="1.0" xmlns="http://www.w3.org/2000/svg"
 width="700.000000pt" height="700.000000pt" viewBox="0 0 700.000000 700.000000"
 preserveAspectRatio="xMidYMid meet">
<metadata>
Created by potrace 1.11, written by Peter Selinger 2001-2013
</metadata>
<g transform="translate(0.000000,700.000000) scale(0.100000,-0.100000)"
fill="#000000" stroke="none">
<path d="M0 3500 l0 -3500 3500 0 3500 0 0 3500 0 3500 -3500 0 -3500 0 0
-3500z m2717 65 c117 -385 214 -704 216 -708 1 -5 101 311 222 702 l219 711
135 0 136 0 219 -717 c120 -395 221 -723 223 -730 4 -11 -22 -13 -133 -11
l-137 3 -34 120 c-18 66 -38 137 -43 158 l-11 37 -224 0 -224 0 -21 -70 c-11
-38 -29 -103 -41 -142 -11 -40 -23 -81 -25 -90 -5 -17 -26 -18 -263 -18 l-257
0 -45 163 -44 162 -222 3 -222 2 -20 -67 c-11 -38 -32 -112 -47 -165 l-28 -98
-132 0 -133 0 9 28 c5 15 100 322 210 682 111 360 208 676 216 703 l16 48 136
-3 135 -3 214 -700z m1983 223 l245 -482 3 482 2 482 125 0 125 0 0 -730 0
-731 -132 3 -133 3 -245 485 -245 485 -3 -487 -2 -488 -125 0 -125 0 0 730 0
730 133 0 132 0 245 -482z"/>
<path d="M2286 3644 c-43 -146 -75 -268 -72 -271 2 -3 71 -2 151 2 l147 7 -7
27 c-10 42 -137 496 -139 499 -2 1 -38 -118 -80 -264z"/>
<path d="M3429 3645 c-42 -146 -74 -267 -71 -270 7 -7 287 -7 294 0 4 5 -136
522 -144 530 -2 2 -38 -115 -79 -260z"/>
</g>
</svg>
